/* XPM */
static char * E:\Deb\GitHub\lamacointest\pic\NewIcon\ladaicons\pixmaps\bitcoin16_xpm[] = {
"16 16 187 2",
"  	c None",
". 	c #B8A896",
"+ 	c #B3A387",
"@ 	c #BBAC8F",
"# 	c #D1C8AF",
"$ 	c #A79377",
"% 	c #BFB08B",
"& 	c #DED7AE",
"* 	c #EAE7BD",
"= 	c #E8E3B9",
"- 	c #D6CAA1",
"; 	c #C2B28B",
"> 	c #B1A383",
", 	c #C5B68E",
"' 	c #CDBE90",
") 	c #D3C89B",
"! 	c #DFDAAF",
"~ 	c #EBE8BE",
"{ 	c #EBE6BC",
"] 	c #E1D5A8",
"^ 	c #D6C393",
"/ 	c #CAB384",
"( 	c #B3A37F",
"_ 	c #CDBF96",
": 	c #C9B88D",
"< 	c #C2B08A",
"[ 	c #C0AF8A",
"} 	c #DAD4AB",
"| 	c #E7E2BB",
"1 	c #E3DBB3",
"2 	c #DFD2A7",
"3 	c #C2AF89",
"4 	c #C4B088",
"5 	c #C5AF84",
"6 	c #B1A27D",
"7 	c #BFB28F",
"8 	c #D3C292",
"9 	c #C1AC7D",
"0 	c #BAAA80",
"a 	c #C3B68B",
"b 	c #D2C69C",
"c 	c #BEAE82",
"d 	c #C0AE81",
"e 	c #D0BD8F",
"f 	c #CAB486",
"g 	c #C4AF82",
"h 	c #B7A072",
"i 	c #C0A879",
"j 	c #ADA180",
"k 	c #D5C79B",
"l 	c #D9C798",
"m 	c #C2AB7B",
"n 	c #C6B68A",
"o 	c #C8B68A",
"p 	c #B19A6D",
"q 	c #DFD9B0",
"r 	c #E0D6AB",
"s 	c #B49A6B",
"t 	c #C8B080",
"u 	c #C9B283",
"v 	c #B1986A",
"w 	c #C0A676",
"x 	c #B09D77",
"y 	c #A39078",
"z 	c #DFCEA0",
"A 	c #E0CE9F",
"B 	c #E0D0A3",
"C 	c #D9C89B",
"D 	c #BBA579",
"E 	c #C5B487",
"F 	c #DFD8AC",
"G 	c #E0D2A4",
"H 	c #C8B081",
"I 	c #BAA273",
"J 	c #C3AB7C",
"K 	c #BEA778",
"L 	c #B9A070",
"M 	c #AF986D",
"N 	c #9F9478",
"O 	c #AF9E80",
"P 	c #E1D0A1",
"Q 	c #E1CFA0",
"R 	c #DECC9F",
"S 	c #B79F71",
"T 	c #DAC99B",
"U 	c #DECE9E",
"V 	c #D7CA9C",
"W 	c #CDB888",
"X 	c #BFA675",
"Y 	c #B69C6D",
"Z 	c #B19665",
"` 	c #B8A071",
" .	c #B49B6B",
"..	c #97886E",
"+.	c #A99679",
"@.	c #DBC899",
"#.	c #DAC898",
"$.	c #D6C497",
"%.	c #BFA776",
"&.	c #D3BF91",
"*.	c #CFBA8A",
"=.	c #C5AF7E",
"-.	c #CDBA85",
";.	c #B79F6E",
">.	c #B69E70",
",.	c #B69E6F",
"'.	c #B19B6D",
").	c #B19867",
"!.	c #AE9768",
"~.	c #8E7D65",
"{.	c #9F896D",
"].	c #CBB88A",
"^.	c #CFBA8B",
"/.	c #D1BE90",
"(.	c #C5B183",
"_.	c #BCA473",
":.	c #B8A06F",
"<.	c #CBB782",
"[.	c #E7D8A1",
"}.	c #CCB886",
"|.	c #B9A373",
"1.	c #B49E70",
"2.	c #B7A172",
"3.	c #A99368",
"4.	c #877A62",
"5.	c #B19C77",
"6.	c #C5AF7F",
"7.	c #BDA371",
"8.	c #B6A072",
"9.	c #B29A6B",
"0.	c #B19764",
"a.	c #D0BB87",
"b.	c #E3D29D",
"c.	c #C4B17F",
"d.	c #C4AE7D",
"e.	c #B09665",
"f.	c #B49C6A",
"g.	c #9C8864",
"h.	c #927A5F",
"i.	c #BBA374",
"j.	c #B79D6E",
"k.	c #B6A075",
"l.	c #BBA578",
"m.	c #BDA878",
"n.	c #B89F70",
"o.	c #B9A274",
"p.	c #DCCC9A",
"q.	c #D5C494",
"r.	c #CBB789",
"s.	c #B09869",
"t.	c #BAA473",
"u.	c #877359",
"v.	c #988060",
"w.	c #B69F72",
"x.	c #B0986C",
"y.	c #B09A6E",
"z.	c #C8B583",
"A.	c #D6C694",
"B.	c #E2D4A1",
"C.	c #E9DCA7",
"D.	c #C5B284",
"E.	c #C2AD7F",
"F.	c #C3AF80",
"G.	c #A99875",
"H.	c #886B50",
"I.	c #9B8463",
"J.	c #B59E6E",
"K.	c #BEA774",
"L.	c #CAB682",
"M.	c #DAC993",
"N.	c #E5D69F",
"O.	c #E3D39C",
"P.	c #DCCC98",
"Q.	c #BDAF88",
"R.	c #9E8667",
"S.	c #988164",
"T.	c #B8A57C",
"U.	c #CDBC8B",
"V.	c #DDCD99",
"W.	c #E8D9A3",
"X.	c #E7DAA7",
"Y.	c #D8CEA1",
"Z.	c #B0A684",
"`.	c #806D54",
" +	c #9D8F70",
".+	c #9B8E71",
"++	c #766D57",
"            . + @ #             ",
"        $ % & * = - ; >         ",
"      , ' ) ! ~ { ] ^ / (       ",
"    _ : < [ } | 1 2 3 4 5 6     ",
"  7 8 9 0 a b c d e f g h i j   ",
"  k l m n o p q r s t u v w x   ",
"y z A B C D E F G H I J K L M N ",
"O P Q R S T U V W X Y Z `  .v ..",
"+.@.#.$.%.&.*.=.-.;.>.,.'.).!.~.",
"{.].^./.(._.:.<.[.}.|.1.2.).3.4.",
"  5.6.7.8.9.0.a.b.;.c.d.e.f.g.  ",
"  h.i.j.k.l.m.n.o.p.q.r.s.t.u.  ",
"    v.w.x.y.z.A.B.C.D.E.F.G.    ",
"    H.I.J.K.L.M.N.[.O.P.Q.R.    ",
"        S.T.U.V.W.X.Y.Z.        ",
"            `. +.+++            "};
