/* XPM */
static char *bitcoin__[] = {
"32 32 735 2",
"  	c None",
". 	c #AE9D85",
"+ 	c #B3A389",
"@ 	c #BCAD91",
"# 	c #C6B99C",
"$ 	c #8F7865",
"% 	c #876E5A",
"& 	c #8D755E",
"* 	c #968065",
"= 	c #9E896D",
"- 	c #A49073",
"; 	c #A79577",
"> 	c #AB9A7B",
", 	c #B2A383",
"' 	c #BDB191",
") 	c #C4BC99",
"! 	c #C1B695",
"~ 	c #9A8470",
"{ 	c #89715B",
"] 	c #937B60",
"^ 	c #B19F7C",
"/ 	c #CBBF98",
"( 	c #DCD4AB",
"_ 	c #E5DFB6",
": 	c #E8E4BB",
"< 	c #E6E0B8",
"[ 	c #DDD4AD",
"} 	c #CEC19B",
"| 	c #BDAD89",
"1 	c #B2A281",
"2 	c #B5AA88",
"3 	c #BDB390",
"4 	c #B2A485",
"5 	c #A18E75",
"6 	c #A49072",
"7 	c #C4B48C",
"8 	c #DCD1A4",
"9 	c #E4DDB0",
"0 	c #E8E3B8",
"a 	c #EDE9BF",
"b 	c #F0EEC4",
"c 	c #F3F1C7",
"d 	c #F3F1C6",
"e 	c #F2EDC2",
"f 	c #EFE8BB",
"g 	c #EADEB0",
"h 	c #DBCB9E",
"i 	c #C2AD84",
"j 	c #AD9B79",
"k 	c #B6AB89",
"l 	c #B6AA88",
"m 	c #B4A588",
"n 	c #C3B48D",
"o 	c #D5C798",
"p 	c #D4C799",
"q 	c #D4C99D",
"r 	c #D8CFA4",
"s 	c #DED7AC",
"t 	c #E4DFB5",
"u 	c #E9E5BC",
"v 	c #ECE8BF",
"w 	c #ECE7BE",
"x 	c #E9E2B8",
"y 	c #E4DAAF",
"z 	c #DFD1A5",
"A 	c #DDCC9E",
"B 	c #DDCA99",
"C 	c #D3BC8C",
"D 	c #B49C75",
"E 	c #ADA080",
"F 	c #B8AE8B",
"G 	c #C0B693",
"H 	c #D2C599",
"I 	c #CEBE8C",
"J 	c #C7B888",
"K 	c #CABB8D",
"L 	c #CEC193",
"M 	c #D4CA9D",
"N 	c #DCD4A9",
"O 	c #E3DDB3",
"P 	c #E9E6BD",
"Q 	c #EEECC2",
"R 	c #EFEBC2",
"S 	c #E9E3B8",
"T 	c #E3D9AD",
"U 	c #DDCDA0",
"V 	c #D6C393",
"W 	c #D0BA8A",
"X 	c #D0B886",
"Y 	c #D6BE89",
"Z 	c #BFA677",
"` 	c #A99A79",
" .	c #BAB08D",
"..	c #BDB391",
"+.	c #D5C89B",
"@.	c #CCBB8D",
"#.	c #C8B892",
"$.	c #CBBB93",
"%.	c #CABB94",
"&.	c #CCBE98",
"*.	c #CEC29D",
"=.	c #D7CFA6",
"-.	c #E6E1B7",
";.	c #EEECC3",
">.	c #EFEDC8",
",.	c #ECEAC5",
"'.	c #EFEAC0",
").	c #E5DBAF",
"!.	c #DCCDA2",
"~.	c #D2C09A",
"{.	c #CFBB92",
"].	c #CEB990",
"^.	c #CFBA91",
"/.	c #D2BD94",
"(.	c #BEA67A",
"_.	c #A89978",
":.	c #B5AA8B",
"<.	c #D3C79D",
"[.	c #D2C08E",
"}.	c #C6B68B",
"|.	c #CAB68E",
"1.	c #C0AC84",
"2.	c #B6A37F",
"3.	c #B8A47F",
"4.	c #AC9977",
"5.	c #C7BF9A",
"6.	c #E9E4B9",
"7.	c #ECEBC6",
"8.	c #D7C7A2",
"9.	c #CCBB92",
"0.	c #E8E2BB",
"a.	c #E9DEB1",
"b.	c #D4C69D",
"c.	c #B4A27F",
"d.	c #B6A37E",
"e.	c #C2AE87",
"f.	c #BFAB85",
"g.	c #C3AE81",
"h.	c #BDA375",
"i.	c #AA9E7E",
"j.	c #B9AD8A",
"k.	c #AA9C81",
"l.	c #C8BE97",
"m.	c #D8C798",
"n.	c #CFBE8E",
"o.	c #CAB88C",
"p.	c #BAA577",
"q.	c #AC9B74",
"r.	c #BAAB81",
"s.	c #BBAD84",
"t.	c #BEB28A",
"u.	c #D2C99E",
"v.	c #E2DDB5",
"w.	c #CFBF95",
"x.	c #B39D70",
"y.	c #B6A172",
"z.	c #C5B184",
"A.	c #DFD2A7",
"B.	c #D7C698",
"C.	c #C2AE83",
"D.	c #C1AD81",
"E.	c #BDA87D",
"F.	c #BCA87D",
"G.	c #B6A173",
"H.	c #B9A377",
"I.	c #D2B984",
"J.	c #AA936C",
"K.	c #B5AB8A",
"L.	c #B1A382",
"M.	c #B7AC8C",
"N.	c #D7C99D",
"O.	c #D8C696",
"P.	c #D2C192",
"Q.	c #CCB98B",
"R.	c #B19868",
"S.	c #B9A87C",
"T.	c #D1C192",
"U.	c #CBBC8E",
"V.	c #CDBE8F",
"W.	c #D4C99F",
"X.	c #C6B185",
"Y.	c #A68C5C",
"Z.	c #CEC8A2",
"`.	c #D6CFA8",
" +	c #AC9361",
".+	c #BBA272",
"++	c #D3BF90",
"@+	c #D4BD8C",
"#+	c #D4BC8B",
"$+	c #D3BC8B",
"%+	c #CCB485",
"&+	c #AD9566",
"*+	c #B8A173",
"=+	c #C9B07E",
"-+	c #C4AA79",
";+	c #A39472",
">+	c #BCB390",
",+	c #A6977C",
"'+	c #C5BA94",
")+	c #DECC9D",
"!+	c #DBCA9A",
"~+	c #D5C394",
"{+	c #D2BF91",
"]+	c #B29461",
"^+	c #BBA97D",
"/+	c #D0C092",
"(+	c #C5B485",
"_+	c #C9BA8F",
":+	c #BFA87B",
"<+	c #A18454",
"[+	c #C5BB94",
"}+	c #F1EFC6",
"|+	c #F0EBC1",
"1+	c #CDBF95",
"2+	c #A68B5A",
"3+	c #B79B69",
"4+	c #CDB687",
"5+	c #CBB484",
"6+	c #CCB686",
"7+	c #CBB283",
"8+	c #AE915F",
"9+	c #B79F72",
"0+	c #C2A978",
"a+	c #C8AF7C",
"b+	c #AB946B",
"c+	c #B2A888",
"d+	c #B0A485",
"e+	c #D0C399",
"f+	c #E3D1A1",
"g+	c #DDCD9D",
"h+	c #D9C898",
"i+	c #D8C699",
"j+	c #AE9568",
"k+	c #C0AF85",
"l+	c #D3C292",
"m+	c #CEBE93",
"n+	c #C7AF83",
"o+	c #A58A5A",
"p+	c #B9AB83",
"q+	c #E2DBAF",
"r+	c #EBE8BE",
"s+	c #EBE5BB",
"t+	c #E1D2A5",
"u+	c #C4AF83",
"v+	c #AC9061",
"w+	c #C0A574",
"x+	c #CBB486",
"y+	c #C8B07F",
"z+	c #C7B183",
"A+	c #AA9265",
"B+	c #B7A074",
"C+	c #BFA574",
"D+	c #C1A877",
"E+	c #BAA171",
"F+	c #A39475",
"G+	c #B6A98B",
"H+	c #B8AC8B",
"I+	c #D8C99D",
"J+	c #E6D6A5",
"K+	c #E0CF9F",
"L+	c #DDCC9D",
"M+	c #DECEA0",
"N+	c #D6C99E",
"O+	c #D8C99B",
"P+	c #DBCCA1",
"Q+	c #CFB98E",
"R+	c #AE9567",
"S+	c #B6A67D",
"T+	c #CBBB8D",
"U+	c #D7CDA0",
"V+	c #EDEAC1",
"W+	c #EDE7BC",
"X+	c #D8C596",
"Y+	c #D0B786",
"Z+	c #C2AB80",
"`+	c #B59C6D",
" @	c #C7AE7F",
".@	c #C7B083",
"+@	c #C1AA7B",
"@@	c #BEA87C",
"#@	c #BBA171",
"$@	c #C0A774",
"%@	c #A18E6B",
"&@	c #AC9E81",
"*@	c #BCB18D",
"=@	c #DDCD9F",
"-@	c #E8D7A7",
";@	c #E1D0A1",
">@	c #E5D5A7",
",@	c #E7D8A9",
"'@	c #E6D8AC",
")@	c #CFB98D",
"!@	c #AB9263",
"~@	c #C0B087",
"{@	c #D1BF8F",
"]@	c #C6B585",
"^@	c #CFC193",
"/@	c #ECE9BE",
"(@	c #EBE2B6",
"_@	c #D3BD8C",
":@	c #CCB382",
"<@	c #C8AF7E",
"[@	c #BAA378",
"}@	c #B3996A",
"|@	c #C4AA7A",
"1@	c #C4AC7D",
"2@	c #C0A979",
"3@	c #BEA676",
"4@	c #B99F6F",
"5@	c #B89E6E",
"6@	c #BFA673",
"7@	c #A59068",
"8@	c #A19277",
"9@	c #A8987B",
"0@	c #BEB38E",
"a@	c #E0CEA0",
"b@	c #E7D7A7",
"c@	c #E2D1A3",
"d@	c #EBDDB1",
"e@	c #CBB386",
"f@	c #A48858",
"g@	c #C5B48A",
"h@	c #E4D3A3",
"i@	c #DCCB9B",
"j@	c #D6C595",
"k@	c #C9B788",
"l@	c #E0DAAF",
"m@	c #E4D7A9",
"n@	c #CDB381",
"o@	c #C7AF7E",
"p@	c #C1A777",
"q@	c #BEA473",
"r@	c #B1996C",
"s@	c #AB905F",
"t@	c #BCA06D",
"u@	c #C0A97A",
"v@	c #BCA474",
"w@	c #B79D6D",
"x@	c #B59B6B",
"y@	c #BCA371",
"z@	c #A99368",
"A@	c #99886E",
"B@	c #9E8D72",
"C@	c #AC9B7E",
"D@	c #BDAF8C",
"E@	c #DFCC9E",
"F@	c #E5D4A4",
"G@	c #E0CE9E",
"H@	c #E7D8AB",
"I@	c #C3AC7F",
"J@	c #A38654",
"K@	c #C6B48A",
"L@	c #E7D6A6",
"M@	c #E2D1A1",
"N@	c #E6D5A5",
"O@	c #DFCE9E",
"P@	c #D6C89A",
"Q@	c #C8B384",
"R@	c #BDA372",
"S@	c #BDA574",
"T@	c #BAA170",
"U@	c #B59B6A",
"V@	c #AE966B",
"W@	c #B19665",
"X@	c #B59C6C",
"Y@	c #B39969",
"Z@	c #BAA06E",
"`@	c #AB9468",
" #	c #938167",
".#	c #97856C",
"+#	c #A8957A",
"@#	c #B7A786",
"##	c #DBC99A",
"$#	c #E2D1A0",
"%#	c #DCCA9A",
"&#	c #E3D3A5",
"*#	c #BEAA7E",
"=#	c #B09360",
"-#	c #D1BB8B",
";#	c #DBC99B",
">#	c #DAC797",
",#	c #DCC999",
"'#	c #CEBA8A",
")#	c #C7B280",
"!#	c #C9B581",
"~#	c #B49C6B",
"{#	c #B69D6C",
"]#	c #B59D6C",
"^#	c #B19866",
"/#	c #B1996A",
"(#	c #C4AD81",
"_#	c #B29765",
":#	c #A38E64",
"<#	c #B7A071",
"[#	c #B39A6A",
"}#	c #B19767",
"|#	c #B89F6C",
"1#	c #AA9468",
"2#	c #8E7B62",
"3#	c #917D65",
"4#	c #A28D72",
"5#	c #AE9D7E",
"6#	c #D5C194",
"7#	c #DFCD9C",
"8#	c #D8C495",
"9#	c #DDCB9C",
"0#	c #DFCEA1",
"a#	c #C2AF83",
"b#	c #B89E6A",
"c#	c #CDB88A",
"d#	c #CEB98B",
"e#	c #C8B281",
"f#	c #C2AB7A",
"g#	c #B49B6A",
"h#	c #CCB884",
"i#	c #EBDDA5",
"j#	c #CEBA86",
"k#	c #BDA674",
"l#	c #B49C6A",
"m#	c #B29A6B",
"n#	c #C7B186",
"o#	c #BBA26F",
"p#	c #A99469",
"q#	c #B8A172",
"r#	c #B69F6F",
"s#	c #B19968",
"t#	c #B09766",
"u#	c #B89E6C",
"v#	c #A69167",
"w#	c #89755E",
"x#	c #8A765F",
"y#	c #A59376",
"z#	c #CAB68B",
"A#	c #DBC898",
"B#	c #D3BE8F",
"C#	c #D2BE8F",
"D#	c #D4C192",
"E#	c #D1BF91",
"F#	c #BDA46F",
"G#	c #C9B284",
"H#	c #BAA374",
"I#	c #BBA471",
"J#	c #D8C691",
"K#	c #EEDFA8",
"L#	c #E1D19B",
"M#	c #CBB783",
"N#	c #BFAA79",
"O#	c #CBB68A",
"P#	c #BCA472",
"Q#	c #A89469",
"R#	c #B49D6E",
"S#	c #B69F6E",
"T#	c #B59E6E",
"U#	c #B19867",
"V#	c #B09767",
"W#	c #A18E66",
"X#	c #847059",
"Y#	c #9C886D",
"Z#	c #BAA680",
"`#	c #D7C392",
" $	c #CEB98A",
".$	c #CBB586",
"+$	c #CEBA8C",
"@$	c #D0BC90",
"#$	c #C7B284",
"$$	c #C3AD7F",
"%$	c #B39C70",
"&$	c #BAA06B",
"*$	c #C0A776",
"=$	c #C2AC78",
"-$	c #DBC993",
";$	c #ECDDA5",
">$	c #E6D69F",
",$	c #DAC995",
"'$	c #D1BC8E",
")$	c #B69C6A",
"!$	c #AA9569",
"~$	c #B7A170",
"{$	c #BEA778",
"]$	c #C1AB7F",
"^$	c #B49C6D",
"/$	c #B79E6C",
"($	c #9A8865",
"_$	c #806954",
":$	c #947D64",
"<$	c #A69272",
"[$	c #CFB989",
"}$	c #CBB686",
"|$	c #C4AE7E",
"1$	c #C9B283",
"2$	c #BB9F6B",
"3$	c #B39E71",
"4$	c #BFA979",
"5$	c #B69E70",
"6$	c #AB9365",
"7$	c #B29661",
"8$	c #C0A572",
"9$	c #C9B481",
"0$	c #DAC892",
"a$	c #E8D8A0",
"b$	c #EBDDA7",
"c$	c #D5C090",
"d$	c #AB8F5D",
"e$	c #AD996B",
"f$	c #C4B07E",
"g$	c #BFAA78",
"h$	c #C5AE7D",
"i$	c #B89C69",
"j$	c #AD9668",
"k$	c #B39A68",
"l$	c #B49D6C",
"m$	c #8E7D61",
"n$	c #7A624D",
"o$	c #91775C",
"p$	c #947E64",
"q$	c #BEA77C",
"r$	c #CAB483",
"s$	c #BFA879",
"t$	c #C2AA7B",
"u$	c #B29562",
"v$	c #B0996D",
"w$	c #BCA576",
"x$	c #B59D6D",
"y$	c #B39B6B",
"z$	c #A99164",
"A$	c #AB8D5A",
"B$	c #C5AC78",
"C$	c #DDCB96",
"D$	c #EADCA5",
"E$	c #D6C192",
"F$	c #B3A072",
"G$	c #D5C390",
"H$	c #CCB985",
"I$	c #C7B482",
"J$	c #C7B07E",
"K$	c #AD905D",
"L$	c #AE9869",
"M$	c #B69E6D",
"N$	c #B9A06D",
"O$	c #AC996E",
"P$	c #836E57",
"Q$	c #77604B",
"R$	c #897059",
"S$	c #A28D6C",
"T$	c #C5AD7C",
"U$	c #BDA676",
"V$	c #BEA678",
"W$	c #AB9061",
"X$	c #B9A273",
"Y$	c #B59F6F",
"Z$	c #B7A06F",
"`$	c #BDA675",
" %	c #B09A6D",
".%	c #A78958",
"+%	c #CCB685",
"@%	c #D4C093",
"#%	c #A18455",
"$%	c #B9A87B",
"%%	c #E6D7A1",
"&%	c #DECE99",
"*%	c #D7C793",
"=%	c #D1C08C",
"-%	c #CAB585",
";%	c #A68B5D",
">%	c #B29C6E",
",%	c #BDA673",
"'%	c #9D8E6D",
")%	c #7B624C",
"!%	c #8A6D54",
"~%	c #8A735B",
"{%	c #B29B71",
"]%	c #BEA673",
"^%	c #BDA679",
"/%	c #B99D6D",
"(%	c #B9A176",
"_%	c #C2AB81",
":%	c #C1AB80",
"<%	c #BFA980",
"[%	c #BFAA7B",
"}%	c #CDBA86",
"|%	c #BBA77B",
"1%	c #B29565",
"2%	c #AC8F61",
"3%	c #BFAE83",
"4%	c #F0E3AD",
"5%	c #E6D7A5",
"6%	c #D3C195",
"7%	c #CDBA8E",
"8%	c #CAB286",
"9%	c #AF9465",
"0%	c #B7A476",
"a%	c #C5AD78",
"b%	c #B5A57A",
"c%	c #8C775E",
"d%	c #785F4A",
"e%	c #81654E",
"f%	c #937E63",
"g%	c #B49C6C",
"h%	c #BEA87A",
"i%	c #B9A27A",
"j%	c #B49B71",
"k%	c #AF9870",
"l%	c #AF976E",
"m%	c #A9936E",
"n%	c #BCAA7E",
"o%	c #D1BE89",
"p%	c #DBCC99",
"q%	c #C6B388",
"r%	c #C5B58A",
"s%	c #F2E6B0",
"t%	c #EFE2AA",
"u%	c #E4D6A7",
"v%	c #B19A75",
"w%	c #AE966E",
"x%	c #B09970",
"y%	c #B69E73",
"z%	c #B29C75",
"A%	c #C1AD7E",
"B%	c #C6B482",
"C%	c #A19374",
"D%	c #816750",
"E%	c #7E634D",
"F%	c #9A8567",
"G%	c #B49B6B",
"H%	c #B29B6D",
"I%	c #AE976A",
"J%	c #AF986A",
"K%	c #B9A475",
"L%	c #C6B17F",
"M%	c #D0BD8A",
"N%	c #DAC994",
"O%	c #E3D5A1",
"P%	c #EBDEA9",
"Q%	c #EDE0A9",
"R%	c #EDDFA9",
"S%	c #E8D9A4",
"T%	c #DDCF9C",
"U%	c #D7C796",
"V%	c #D2C290",
"W%	c #CEBD8C",
"X%	c #CCBA89",
"Y%	c #CEBC8A",
"Z%	c #B2A684",
"`%	c #8F775C",
" &	c #876B50",
".&	c #7F644D",
"+&	c #9D8969",
"@&	c #B99F6B",
"#&	c #B89F6D",
"$&	c #BAA26F",
"%&	c #BFA874",
"&&	c #C5B07C",
"*&	c #D7C490",
"=&	c #DFCE98",
"-&	c #E5D59E",
";&	c #E8D9A3",
">&	c #E9DAA2",
",&	c #E7D7A0",
"'&	c #E5D59D",
")&	c #E1D099",
"!&	c #DECC96",
"~&	c #DECB93",
"{&	c #D7C894",
"]&	c #BCB28D",
"^&	c #9D8768",
"/&	c #7F6951",
"(&	c #866A4F",
"_&	c #82664F",
":&	c #9C886B",
"<&	c #B29D72",
"[&	c #BCA471",
"}&	c #C1A975",
"|&	c #C4AE7A",
"1&	c #C9B480",
"2&	c #CFBC87",
"3&	c #D7C48F",
"4&	c #DDCC96",
"5&	c #E3D39C",
"6&	c #E7D8A1",
"7&	c #E9D9A2",
"8&	c #E8D9A2",
"9&	c #E6D69E",
"0&	c #D8CC9D",
"a&	c #C2B892",
"b&	c #A79170",
"c&	c #846E55",
"d&	c #856950",
"e&	c #978166",
"f&	c #AE9C79",
"g&	c #BEAB7D",
"h&	c #D0BC86",
"i&	c #D7C38C",
"j&	c #DDCA93",
"k&	c #E2D19A",
"l&	c #E7D79F",
"m&	c #ECDCA4",
"n&	c #EFDFA6",
"o&	c #F0E0A7",
"p&	c #EEE0A8",
"q&	c #E6DAA8",
"r&	c #D3CCA3",
"s&	c #BFB690",
"t&	c #A89471",
"u&	c #866B4F",
"v&	c #92795D",
"w&	c #A59273",
"x&	c #B7A783",
"y&	c #C5B78D",
"z&	c #D0C293",
"A&	c #DACB9A",
"B&	c #E1D3A0",
"C&	c #E7D9A5",
"D&	c #E9DDA9",
"E&	c #E7DDAB",
"F&	c #E0D7AA",
"G&	c #D1CBA3",
"H&	c #BFB895",
"I&	c #ACA282",
"J&	c #948668",
"K&	c #8B7053",
"L&	c #9A8162",
"M&	c #A89373",
"N&	c #B5A380",
"O&	c #BDAF8A",
"P&	c #C1B792",
"Q&	c #C1B995",
"R&	c #BFB793",
"S&	c #B8AF8D",
"T&	c #AEA484",
"U&	c #A09476",
"V&	c #8C7E63",
"W&	c #927E5E",
"X&	c #928465",
"Y&	c #8F8165",
"Z&	c #897A5F",
"                            . + @ #                             ",
"                    $ % & * = - ; > , ' ) !                     ",
"                ~ { ] ^ / ( _ : < [ } | 1 2 3 4                 ",
"              5 6 7 8 9 0 a b c d e f g h i j k l               ",
"            m n o p q r s t u v w x y z A B C D E F             ",
"          G H I J K L M N O P Q R S T U V W X Y Z `  .          ",
"        ..+.@.#.$.%.&.*.=.-.;.>.,.'.).!.~.{.].^./.(._. .        ",
"      :.<.[.}.|.1.2.3.4.5.6.7.8.9.0.a.b.c.d.2.e.f.g.h.i.j.      ",
"    k.l.m.n.o.p.q.r.s.t.u.v.w.x.y.z.A.B.C.D.E.F.G.H.I.J.K.L.    ",
"    M.N.O.P.Q.R.S.T.U.V.W.X.Y.Z.`. +.+++@+#+$+%+&+*+=+-+;+>+    ",
"  ,+'+)+!+~+{+]+^+/+(+_+:+<+[+}+|+1+2+3+4+5+6+7+8+9+0+a+b+c+l   ",
"  d+e+f+g+h+i+j+k+l+m+n+o+p+q+r+s+t+u+v+w+x+y+z+A+B+C+D+E+F+G+  ",
"  H+I+J+K+L+M+N+O+P+Q+R+S+T+U+V+W+X+Y+Z+`+ @.@+@@@Z #@.+$@%@&@  ",
"  *@=@-@;@;@>@,@'@)@!@~@{@]@^@/@(@_@:@<@[@}@|@1@2@3@4@5@6@7@8@  ",
"9@0@a@b@;@c@,@d@e@f@g@h@i@j@k@l@m@n@o@p@q@r@s@t@u@v@w@x@y@z@A@B@",
"C@D@E@F@G@;@H@I@J@K@L@M@N@-@O@P@Q@R@S@T@w@U@V@8+W@*+X@Y@Z@`@ #.#",
"+#@###$#%#)+&#*#=#-#;#>#,#>#'#)#!#~#{#]#^#/#(#_#:#<#[#}#|#1#2#3#",
"4#5#6#7#8#X+9#0#a#b#c#d#e#f#g#h#i#j#k#l#m#n#o#p#q#r#s#t#u#v#w#x#",
"  y#z#A#B#C#D#D#E#F.F#G#H#g#I#J#K#L#M#N#O#P#Q#R#S#T#U#V#|#W#X#  ",
"  Y#Z#`# $.$+$@$#$$$%$&$*$X@=$-$;$>$,$'$)$!$~${$]$^$t#s#/$($_$  ",
"  :$<$[$}$|$1$2$3$4$5$6$7$8$9$0$a$b$c$d$e$f$g$h$i$j$k$l#l$m$n$  ",
"  o$p$q$r$s$t$u$v$w$x$y$z$A$B$C$D$E$J@F$G$H$I$J$K$L$M$N$O$P$Q$  ",
"    R$S$T$U$V$W$z@X$Y$Z$`$ %.%+%@%#%$%%%&%*%=%-%;%>%,%P#'%)%    ",
"    !%~%{%]%^%/%(%_%:%<%[%}%|%1%2%3%4%5%6%@$7%8%9%0%a%b%c%d%    ",
"      e%f%g%h%i%j%k%l%m%n%o%p%q%r%s%t%u%v%w%x%y%z%A%B%C%D%      ",
"        E%F%G%H%I%J%>%K%L%M%N%O%P%Q%R%S%T%U%V%W%X%Y%Z%`%        ",
"         &.&+&G%@&#&$&%&&&j#*&=&-&;&>&,&'&)&!&~&{&]&^&/&        ",
"          (&_&:&<&[&}&|&1&2&3&4&5&6&7&8&,&9&-&0&a&b&c&          ",
"              d&e&f&g&1&h&i&j&k&l&m&n&o&p&q&r&s&t&              ",
"                u&v&w&x&y&z&A&B&C&D&E&F&G&H&I&J&                ",
"                    K&L&M&N&O&P&Q&R&S&T&U&V&                    ",
"                            W&X&Y&Z&                            "};
